# xmcd
#
# Track frame offsets:
#	150
#	19160
#	30420
#	43249
#	53397
#	67671
#
# Disc length: 1070 seconds
#
# Revision: 1
# Processed by: cddbd v1.5.1PL0 Copyright (c) Steve Scherf et al.
# Submitted via: audiograbber 1.83.01
#
DISCID=3d042c06
DTITLE=George Strait - The GM Card Presents: Strait From George
DYEAR=2002
DGENRE=
TTITLE0=I Can Still Make Cheyenne
TTITLE1=I Can't See Texas From Here
TTITLE2=Bigger Man Than Me
TTITLE3=Rhythm Of The Road
TTITLE4=Just Look At Me
TTITLE5=Blame It On Mexico
EXTD=
EXTT0=
EXTT1=
EXTT2=
EXTT3=
EXTT4=
EXTT5=
PLAYORDER=
